<svg xmlns="http://www.w3.org/2000/svg" viewBox="0 0 96 96" ><g data-v-7bdd0738="" transform="translate(0,96) scale(0.100000,-0.100000)" fill="white" stroke="none"><path data-v-7bdd0738="" d="M351 854 c-98 -35 -179 -108 -227 -202 -27 -53 -29 -65 -29 -172 0
    -107 2 -119 29 -172 38 -75 104 -141 180 -181 58 -31 66 -32 176 -32 110 0
    118 1 175 32 77 40 138 101 178 178 31 57 32 65 32 175 0 110 -1 118 -32 176
    -40 76 -106 142 -181 179 -49 25 -71 29 -157 32 -73 2 -112 -1 -144 -13z m259
    -80 c73 -34 126 -86 161 -159 24 -50 29 -73 29 -135 0 -62 -5 -85 -29 -135
    -57 -119 -161 -185 -291 -185 -130 0 -234 66 -291 185 -24 50 -29 73 -29 135
    0 130 66 234 185 291 82 40 184 41 265 3z"></path><path data-v-7bdd0738="" class="icon_svg" d="M545 600 c-35 -35 -68 -60 -80 -60 -27 0 -45 -18 -45 -45 0 -33 -50
    -75 -89 -75 -18 0 -41 -5 -53 -11 -20 -11 -20 -11 3 -35 12 -13 33 -24 46 -24
    17 0 23 -6 23 -23 0 -13 10 -33 23 -45 30 -28 47 -13 47 43 0 32 6 47 28 68
    15 15 37 27 48 27 26 0 44 18 44 44 0 12 26 47 60 81 l60 61 -28 27 -28 27
    -59 -60z"></path></g></svg>